<mxfile host="app.diagrams.net" modified="2023-06-05T06:58:21.450Z" agent="Mozilla/5.0 (Windows NT 10.0; Win64; x64) AppleWebKit/537.36 (KHTML, like Gecko) Chrome/114.0.0.0 Safari/537.36" version="21.3.7" etag="__NRu8BrVjaIIlsQdx1k" type="github">
  <diagram name="Strona-1" id="Qf9NmSAXsXxBnuMO7uFG">
    <mxGraphModel>
      <root>
        <mxCell id="0" />
        <mxCell id="1" parent="0" />
      </root>
    </mxGraphModel>
  </diagram>
</mxfile>
